<?xml version="1.0" encoding="UTF-8"?>
<svg id="Capa_2" data-name="Capa 2" xmlns="http://www.w3.org/2000/svg" viewBox="0 0 2295.85 420.26">
  <defs>
    <style>
      .cls-1 {
        fill: #ff4e1c;
      }

      .cls-2 {
        fill: #279f85;
      }
    </style>
  </defs>
  <path class="cls-2" d="m1203.04,379.88c-2.16,1.82-3.61,3.02-5.03,4.25-5.17,4.48-10.02,9.42-15.57,13.38-12.58,8.98-26.78,14.6-42.07,16.46-8.5,1.03-17.28.36-25.89-.2-5.3-.34-10.59-1.67-15.77-2.99-24.98-6.36-43.31-21.32-55.61-43.69-8.45-15.37-12.8-31.98-13.81-49.47-.17-2.97-.62-5.93-.65-8.89-.14-12.5.35-24.93,2.32-37.35,1.73-10.91,4.05-21.64,7.41-32.12,5.62-17.53,13.39-34.1,24.21-49.06,4.27-5.9,8.9-11.63,14-16.81,10.37-10.51,21.3-20.43,34.38-27.65,11.71-6.46,24.13-10.79,37.34-13.16,11.42-2.05,22.93-2.48,34.33-1.52,22.18,1.86,42.76,8.18,58.71,24.94,2.15,2.26,4.04,4.77,6.08,7.14.93,1.08,1.94,2.08,3.41,3.64,1.02-2.08,1.73-3.48,2.41-4.9,7.16-15.03,18.47-25.5,35.01-28.56,23.43-4.34,44.91,5.74,53.92,27.5,2.01,4.85,2.83,10.3,3.5,15.57,1.25,9.73-.64,19.22-2.79,28.71-9.27,41.05-18.4,82.13-27.57,123.19-3.34,14.95-6.6,29.92-10.04,44.84-2.22,9.61-5.45,18.79-11.09,27.11-7.84,11.56-19.03,17.28-32.36,19.35-7.84,1.22-15.67.98-23.39-1.58-5.76-1.91-11.14-4.39-15.68-8.34-7.74-6.75-13.97-14.65-17.46-24.47-.53-1.5-1.24-2.94-2.27-5.34Zm-26.07-52.63c5.24-1.03,10.56-1.75,15.69-3.17,8.6-2.38,16.05-6.91,22.84-12.75,3.16-2.72,4.82-5.71,5.67-9.68,2.66-12.36,5.6-24.65,8.42-36.98,1.76-7.68,3.46-15.38,5.28-23.05.49-2.06.34-3.81-1.26-5.32-6.46-6.09-13.5-11.27-22.2-13.75-8.8-2.5-17.72-3.63-26.92-3.18-7.37.36-14.05,2.59-20.44,5.87-11.97,6.15-20.62,15.49-26.11,27.77-5.42,12.14-7.48,24.81-5.04,37.87,4.05,21.66,24.45,35.68,44.07,36.36Z"/>
  <path class="cls-2" d="m2204.02,167.08c1.16-2.5,1.82-3.96,2.52-5.39,7.22-15.03,18.65-25.4,35.18-28.35,22.25-3.97,42.62,4.9,52.61,24.88,2.9,5.79,4.11,12.04,4.62,18.5.8,9.94-.95,19.53-3.11,29.15-11.33,50.5-22.5,101.04-33.82,151.55-2.05,9.14-4.32,18.23-6.9,27.23-2.16,7.52-6.04,14.3-11.19,20.18-7.7,8.8-17.76,13.36-29.22,14.88-7.57,1.01-15.04.89-22.52-1.47-5.96-1.88-11.46-4.45-16.12-8.42-7.93-6.76-14.24-14.81-17.7-24.82-.51-1.48-1.26-2.87-2.22-5.01-2.08,1.76-3.73,2.95-5.12,4.37-5.86,5.98-12.02,11.58-19.25,15.91-11.78,7.05-24.38,12.16-38,13.73-8.38.97-16.99.53-25.45-.02-5.6-.36-11.18-1.77-16.64-3.18-24.6-6.35-42.77-21.09-55.1-43.05-8.52-15.18-12.36-31.74-14.16-48.95-1.32-12.53-.89-25.03.35-37.43,1.56-15.53,4.33-30.95,10.14-45.59,3.4-8.57,6.97-17.08,10.78-25.47,4.14-9.13,9.84-17.35,15.99-25.23,10.54-13.49,23.03-25.02,37.09-34.69,13.41-9.23,28.41-14.86,44.53-17.72,11.87-2.1,23.83-2.57,35.67-1.51,21.55,1.94,41.46,8.56,57.22,24.37,2.2,2.21,4.03,4.77,6.05,7.16,1.02,1.21,2.07,2.39,3.78,4.37Zm-74.29,160.27c5.38-1.05,10.84-1.82,16.13-3.23,8.79-2.34,16.35-6.97,23.14-13.05,2.72-2.43,4.4-5.01,5.16-8.51,2.13-9.89,4.43-19.73,6.67-29.6,2.37-10.44,4.7-20.89,7.14-31.32.48-2.06.36-3.77-1.22-5.32-5.48-5.39-11.59-10.04-18.8-12.64-9.44-3.4-19.27-4.72-29.42-4.28-11.72.5-21.86,4.81-30.66,12.03-18.58,15.23-25.05,35.51-21.82,58.64,3.1,22.18,24.21,36.39,43.68,37.27Z"/>
  <path class="cls-2" d="m1506.54,176.95c1.98-1.56,3.41-2.5,4.64-3.67,13.01-12.33,27.59-22.26,44.28-28.98,10.9-4.39,22.27-6.57,34.01-6.91,14.27-.42,28.28,1.53,42.06,5,4.15,1.05,8.23,2.74,12.05,4.71,12.74,6.59,24.2,14.67,31.41,27.63,6.29,11.32,7.9,23.53,7.94,36.2.04,11.6-2.75,22.7-5.24,33.88-5.71,25.55-11.41,51.1-17.12,76.65-4.57,20.46-8.58,41.08-13.87,61.35-5.46,20.9-21.16,33.88-42.07,36.99-9.94,1.48-19.69-.22-28.67-4.94-6.74-3.55-12.08-8.8-16.03-15.24-6.68-10.89-9.27-22.71-7.73-35.49,1.57-13.04,4.82-25.71,7.63-38.49,3.9-17.73,7.76-35.46,11.48-53.22,1.25-5.95,2.41-11.97,2.93-18.01,1.15-13.57-4.72-22.1-16.7-26.12-9.94-3.34-19.94-3.12-29.99-.95-12.58,2.72-23.13,9.38-32.81,17.51-1.44,1.21-2.42,3.41-2.86,5.32-4.87,21.47-9.57,42.98-14.34,64.47-5.06,22.8-9.5,45.76-15.41,68.35-7.16,27.38-33.52,41.1-57.77,36.18-19.45-3.95-35.35-20.55-37.79-40-.67-5.38-.58-11.12.5-16.42,4.15-20.41,8.83-40.71,13.35-61.04,8.71-39.21,17.48-78.41,26.13-117.64,1.87-8.47,4.1-16.81,8.17-24.49,8.95-16.92,22.7-26.73,42.29-26.44,10.09.15,19.74,2.74,27.97,9.28,4.67,3.71,9.59,7.08,13.16,12,3.86,5.32,5.92,11.3,7.07,17.68.25,1.37.74,2.71,1.35,4.87Z"/>
  <path class="cls-2" d="m1845.43,332.44c3.24,2.23,5.99,1.78,8.6,1.58,15.52-1.18,31.05-.58,46.51.56,17.64,1.3,33.66,15.85,36.71,33.93,2.22,13.12-.18,24.98-8.63,35.23-7.68,9.32-17.57,15.16-29.93,15.76-9.67.47-19.37.74-29.05.75-42.24.08-84.48.11-126.71-.05-5.91-.02-12.11-.25-17.68-1.96-16.42-5.03-27.09-16.4-30.68-33.05-3.06-14.21-.11-27.55,10.89-38.14,11.17-10.75,22.37-21.48,33.63-32.13,13.43-12.7,26.95-25.31,40.44-37.95,13.05-12.24,26.1-24.47,39.13-36.73.89-.84,1.57-1.89,3.04-3.69-2.65-.18-4.21-.37-5.76-.38-11.04-.03-22.09.16-33.13-.09-5.33-.13-10.74-.62-15.95-1.73-17.59-3.76-33.03-22.03-32.64-42.72.37-19.74,16.64-36.45,30.56-39.85,2.6-.63,5.24-1.32,7.89-1.45,8.64-.43,17.29-.82,25.94-.85,31.49-.1,62.98-.12,94.48,0,15.21.05,30.42.25,45.62.78,20.81.73,36.53,17.84,37.96,36.15.73,9.34-.43,18.15-5.63,26.06-2.1,3.2-4.63,6.22-7.41,8.87-13.37,12.76-26.88,25.38-40.36,38.04-19.02,17.86-38.05,35.71-57.1,53.54-5.22,4.89-10.57,9.65-15.82,14.51-1.59,1.47-3.04,3.1-4.91,5.02Z"/>
  <path class="cls-2" d="m712.5,231.09c-2.14-.53-3.71-.91-5.28-1.31-11.76-2.98-21.47-9.06-27.8-19.54-7.29-12.07-8.02-24.83-3.45-38.19,5.38-15.73,22.58-27.48,38.37-27.44,4.91.01,9.83-.54,14.75-.65,2.38-.05,3.37-1.1,3.93-3.33,1.94-7.79,3.72-15.65,6.16-23.29,7.96-24.85,22.32-45.36,43.42-60.81,15.17-11.11,32.26-17.81,51.07-20,15.07-1.75,30.08-1.33,45.01,1.08,6.95,1.12,13.62,3.23,19.31,7.74,6.05,4.79,10.2,10.65,11.88,18.33,6.15,28.03-17.23,46.48-37.24,45.51-6.26-.3-12.45-.65-18.66.76-6.34,1.44-11.23,4.72-14.52,10.27-4.17,7.05-4.99,15.11-7.42,23.36,2.2.36,3.87.73,5.56.9,3.7.37,7.45.42,11.11,1,15.44,2.42,30.39,16.66,33.45,34.71,3.94,23.23-11.53,44.11-33.92,49.3-4.73,1.1-9.77.97-14.68,1.14-5.22.18-10.45.02-15.67.05-4.51.03-4.62.04-5.64,4.52-2.8,12.33-5.53,24.67-8.25,37.02-5.24,23.82-10.46,47.64-15.69,71.46-2.62,11.91-5.01,23.88-7.91,35.72-3.56,14.54-10.64,26.77-24.35,34.25-26.96,14.71-53.53,3.71-66.35-18.54-6.69-11.61-7.64-23.92-4.82-36.71,9-40.81,18.06-81.6,27.07-122.41.31-1.41.34-2.89.55-4.87Z"/>
  <g>
    <path class="cls-2" d="m1010.21,187.65c.52,8.8-2.23,17.09-4.09,25.49-9.08,40.95-18.3,81.87-27.48,122.8-3.26,14.52-6.58,29.02-9.83,43.54-4.85,21.69-20.26,36.91-42.16,40.23-16.78,2.54-31.29-2.94-42.71-15.58-10.96-12.14-14.3-26.55-11.21-42.39,2.05-10.51,4.65-20.91,6.98-31.36,4.2-18.88,8.37-37.77,12.58-56.64,5.55-24.83,11.12-49.65,16.7-74.47,1.89-8.42,3.81-16.83,5.8-25.22,4.79-20.25,26.43-35.01,46.21-34.95,17.15.05,30.69,6.72,41.12,19.82,4.71,5.91,6.69,13.24,7.68,20.71.35,2.65.28,5.35.41,8.03Z"/>
    <path class="cls-1" d="m934.43,62.73c-.62-11.56,2.22-22.32,8.24-31.98,5.31-8.52,12.3-15.7,20.96-21.01,9.72-5.97,20.41-9.15,31.75-9.67,9.99-.45,19.67,1.39,28.29,6.75,4.15,2.58,8.41,5.33,11.73,8.83,10.43,11,13.48,24.47,11.78,39.22-.32,2.8-.58,5.64-1.31,8.35-4.82,17.87-15.35,31.22-31.69,40.13-10.47,5.71-21.67,8.76-33.44,8.22-17.2-.79-30.7-8.64-39.96-23.38-4.93-7.84-7.09-16.31-6.34-25.46Z"/>
  </g>
  <g>
    <path class="cls-2" d="m494.53,102.7c-5.51-26.98-22.06-46.13-46.57-58.99-13.51-7.09-28.3-8.81-43.46-8.34-14.09.44-27.02,4.51-39.02,11.6-13.74,8.12-24.7,19.03-32.71,32.95-9.06,15.76-18.43,31.33-27.65,47-17.6,29.92-35.18,59.85-52.8,89.76-.7,1.18-1.68,2.2-2.54,3.29-.39-.15-.78-.3-1.17-.45-.29-1.11-.7-2.21-.86-3.34-1.64-12.08-3.11-24.18-4.86-36.24-3.14-21.63-6.28-43.26-9.75-64.84-1.22-7.6-2.89-15.23-5.32-22.53-4.51-13.58-12.84-24.83-23.7-34.08-5.88-5.01-11.72-10.16-18.82-13.54-9.76-4.66-19.85-7.96-30.69-9.1-15.12-1.59-29.93-.03-44.02,5.32-14.02,5.33-25.6,14.73-35.61,25.72-9.41,10.34-14.94,22.92-18.21,36.42-3.11,12.87-5.98,25.79-8.84,38.72-6.87,31.09-13.65,62.19-20.49,93.28-8.63,39.23-17.29,78.45-25.93,117.68-1.82,8.24-2.07,16.54-.39,24.82,3.19,15.71,12.2,27.11,26.06,35.03,6.61,3.78,13.62,5.8,21.11,6.74,16.75,2.11,31.36-2.83,43.86-13.67,9.56-8.29,14.53-19.5,17.33-31.62,3.42-14.78,6.59-29.62,9.83-44.44,8.11-37.06,16.21-74.11,24.28-111.18,1.61-7.41,3-14.87,4.63-22.28.47-2.16.36-4.76,3.18-6.28.38.87.81,1.47.91,2.12,1.55,10.44,3.05,20.89,4.59,31.33,2.53,17.21,5.04,34.42,7.64,51.62,2.18,14.4,4.5,28.79,6.7,43.19,2.58,16.9,5.09,33.82,7.65,50.72,1.02,6.76,2.31,13.49,3.11,20.28.95,8.13,3.75,15.31,9.7,21.05,8.42,8.13,18.31,11.58,29.91,8.53,9.13-2.4,15.79-8.11,20.55-16.15,11.16-18.85,112.01-243.42,252.38-300.08Z"/>
    <path class="cls-1" d="m336.58,343.19c-1.4,6.52-2.8,13.19-2.85,19.8-.05,6.61.94,13.31,3.13,19.75,5.63,16.5,16.2,28.46,32.69,34.35,16.41,5.86,32.25,3.51,47.29-5.18,14.02-8.1,21.64-20.72,25.1-35.92,8.56-37.56,16.77-75.21,25.1-112.82,8.85-39.94,17.61-79.9,26.56-119.82,1.9-8.5,2.87-17.05,2.64-25.61-62.92,37.89-128.56,105.35-159.66,225.44Z"/>
  </g>
  <g>
    <path class="cls-1" d="m642.52,180.36c-1.06-8.55-3.53-16.64-9.29-23.27-10.82-12.47-24.46-18.28-41.14-17.89-19.83.47-39.43,15.56-43.95,32.98-.78,3.02-1.8,5.99-2.48,9.03-6.65,29.61-13.25,59.22-19.88,88.84-6.37,28.45-12.67,56.92-19.16,85.34-1.77,7.77-3.02,15.58-1.93,23.45,3.48,24.96,26.25,44.73,53.88,41.02,20.81-2.79,36.54-15.9,42-37.56,6.18-24.51,11.33-49.28,16.87-73.95,7.44-33.09,14.85-66.19,22.23-99.29,1.62-7.25,3.63-14.46,2.89-22.02,0-2.23.23-4.49-.04-6.69Z"/>
    <path class="cls-1" d="m673.16,22.14c-3.4-6.16-8.96-10.25-14.74-14.05-9.19-6.03-19.46-8.46-30.21-7.97-9.71.45-19.11,2.68-27.82,7.49-15.73,8.68-26.8,20.92-31.58,38.56-1.23,4.54-1.11,9.14-1.96,13.63-.94,5.02-.35,9.94.82,14.6.51,2.05,1.16,4,1.88,5.9.25.44.85,2.13,1.65,3.89,7.86,16.58,23.78,26.76,42.73,27.46,12.14.45,23.48-3.12,34.22-8.9,8.78-4.73,15.7-11.44,21.29-19.39,7.66-10.91,10.98-23.32,10.77-36.36.41-9.26-2.84-17.24-7.04-24.85Z"/>
  </g>
</svg>